<svg width="26" height="26" viewBox="0 0 26 26" fill="none" xmlns="http://www.w3.org/2000/svg">
<path d="M5.47674 15.3064L6.79766 16.6282C7.0673 16.8981 7.0673 17.3566 6.79766 17.6263C6.66284 17.7612 6.50113 17.8152 6.31254 17.8152C6.12375 17.8152 5.93516 17.7612 5.82742 17.6263L4.5065 16.3044L2.86216 17.95L4.18307 19.2718C4.45271 19.5417 4.45271 20.0002 4.18307 20.2699C4.04825 20.4048 3.88654 20.4588 3.69795 20.4588C3.50917 20.4588 3.34746 20.3779 3.21283 20.2699L1.86443 18.9211L0.543513 20.243C0.0852768 20.7015 0.0852766 21.4568 0.570402 21.9154L4.10165 25.4492C4.34422 25.665 4.64074 25.8 4.93726 25.8C5.23379 25.8 5.5303 25.6921 5.77286 25.4492L12.5929 18.6243L7.36377 13.418L5.47674 15.3064Z" fill="#2F6DF2"/>
<path d="M25.4558 4.05748L21.9246 0.523694C21.4932 0.0920369 20.7116 0.0920369 20.2533 0.523694L18.9594 1.84556L20.2803 3.16743C20.55 3.43726 20.55 3.89582 20.2803 4.16548C20.1455 4.3004 19.9838 4.38132 19.7952 4.38132C19.6064 4.38132 19.4178 4.3004 19.3101 4.16548L17.9892 2.84362L16.3448 4.48915L17.6658 5.81101C17.9354 6.08085 17.9354 6.53941 17.6658 6.80907C17.5309 6.94399 17.3692 6.99799 17.1806 6.99799C16.9919 6.99799 16.8033 6.94399 16.6955 6.80907L15.3203 5.43321L13.4062 7.34859L18.6089 12.5549L25.4558 5.70306C25.6715 5.48723 25.8063 5.19047 25.8063 4.86686C25.8063 4.54302 25.6715 4.27339 25.4558 4.05753V4.05748Z" fill="#2F6DF2"/>
<path d="M4.28906 8.33852L8.36806 4.25659L22.1871 18.0856L18.1081 22.1675L4.28906 8.33852Z" fill="#2F6DF2"/>
<path d="M23.7303 19.6496L23.1912 19.1101L19.0938 23.1834L19.6328 23.7229C19.7945 23.8847 19.9833 23.9656 20.199 24.0196L23.326 24.5322C24.0268 24.64 24.6199 24.0468 24.5121 23.3452L23.9999 20.216C23.973 20.0003 23.892 19.7845 23.7303 19.6496L23.7303 19.6496Z" fill="#2F6DF2"/>
<path d="M3.29111 7.34857L7.36163 3.27512L5.71729 1.62959C5.31302 1.22503 4.66598 1.22503 4.26173 1.62959L1.64695 4.24625C1.24268 4.65081 1.24268 5.29831 1.64695 5.70285L3.29111 7.34857Z" fill="#2F6DF2"/>
</svg>
