<svg width="22" height="26" viewBox="0 0 22 26" fill="currentcolor" xmlns="http://www.w3.org/2000/svg">
<path d="M11.5984 7.39995V0.199951H5.99844C5.36192 0.199951 4.75147 0.452808 4.30138 0.902895C3.85129 1.35298 3.59844 1.96343 3.59844 2.59995V20.2C3.59844 20.8365 3.85129 21.4469 4.30138 21.897C4.75147 22.3471 5.36192 22.6 5.99844 22.6H18.7984C19.435 22.6 20.0454 22.3471 20.4955 21.897C20.9456 21.4469 21.1984 20.8365 21.1984 20.2V9.79995H13.9984C13.3619 9.79995 12.7515 9.5471 12.3014 9.09701C11.8513 8.64692 11.5984 8.03647 11.5984 7.39995ZM13.1984 7.39995V0.599951L20.7984 8.19995H13.9984C13.7863 8.19995 13.5828 8.11567 13.4328 7.96564C13.2827 7.81561 13.1984 7.61212 13.1984 7.39995ZM0.398438 4.99995C0.398438 4.5756 0.567009 4.16864 0.867067 3.86858C1.16713 3.56852 1.57409 3.39995 1.99844 3.39995V20.2C1.99844 21.2608 2.41986 22.2782 3.17001 23.0284C3.92016 23.7785 4.93757 24.2 5.99844 24.2H17.9984C17.9984 24.6243 17.8299 25.0313 17.5298 25.3313C17.2297 25.6314 16.8228 25.8 16.3984 25.8H6.07524C4.56966 25.8 3.12574 25.2019 2.06113 24.1373C0.996527 23.0726 0.398437 21.6287 0.398438 20.1232V4.99995Z"/>
</svg>
