<svg xmlns="http://www.w3.org/2000/svg" width="26" height="24" viewBox="0 0 26 24" fill="currentcolor">
  <path d="M10.4069 0.151588C10.3116 0.0747258 10.1747 0.078203 10.0834 0.159803C9.9921 0.241404 9.97335 0.377112 10.0391 0.480411L16.8437 11.1733C16.9458 11.3338 17 11.52 17 11.7102V13.9173C17 14.1397 16.9259 14.3557 16.7894 14.5312L10.0527 23.1927C9.97717 23.2898 9.98347 23.4273 10.0675 23.5171C10.1516 23.6068 10.2884 23.6221 10.3902 23.5532L25.8902 13.0532C25.9558 13.0087 25.9965 12.9358 25.9998 12.8566C26.0031 12.7774 25.9686 12.7013 25.9069 12.6516L10.4069 0.151588Z"/>
  <path d="M7.46092 0.211973C7.41503 0.139861 7.33547 0.0961917 7.25 0.0961917C7.16453 0.0961917 7.08497 0.139861 7.03908 0.211973L0.0390856 11.212C0.00238068 11.2696 -0.00910109 11.3398 0.00731344 11.4062C0.023728 11.4726 0.0666065 11.5293 0.125966 11.5633L7.12597 15.5632C7.20282 15.6072 7.29718 15.6072 7.37403 15.5632L14.374 11.5633C14.4334 11.5293 14.4763 11.4726 14.4927 11.4062C14.5091 11.3398 14.4976 11.2696 14.4609 11.212L7.46092 0.211973Z"/>
  <path d="M0.374036 14.1291C0.270396 14.0699 0.139347 14.0922 0.0611375 14.1824C-0.0170719 14.2726 -0.0206213 14.4055 0.0526629 14.4997L7.05266 23.4997C7.10003 23.5606 7.17285 23.5962 7.25 23.5962C7.32715 23.5962 7.39997 23.5606 7.44734 23.4997L14.4473 14.4997C14.5206 14.4055 14.5171 14.2726 14.4389 14.1824C14.3607 14.0922 14.2296 14.0699 14.126 14.1291L7.74614 17.7747C7.43871 17.9504 7.06129 17.9504 6.75386 17.7747L0.374036 14.1291Z"/>
</svg>