<svg width="32" height="32" viewBox="0 0 32 32" fill="none" xmlns="http://www.w3.org/2000/svg">
<g clip-path="url(#clip0_702_20528)">
<path fill-rule="evenodd" clip-rule="evenodd" d="M16.0031 3.19995C8.93113 3.19995 3.20312 8.92795 3.20312 16C3.20312 21.6639 6.86713 26.448 11.9551 28.1439C12.5951 28.2559 12.8351 27.872 12.8351 27.5359C12.8351 27.232 12.8191 26.2239 12.8191 25.1519C9.60313 25.7439 8.77113 24.368 8.51513 23.6479C8.37113 23.2799 7.74713 22.1439 7.20312 21.84C6.75513 21.6 6.11512 21.0079 7.18713 20.992C8.19513 20.976 8.91513 21.92 9.15513 22.3039C10.3071 24.24 12.1471 23.6959 12.8831 23.3599C12.9951 22.528 13.3311 21.968 13.6991 21.6479C10.8511 21.3279 7.87513 20.2239 7.87513 15.328C7.87513 13.936 8.37113 12.784 9.18713 11.888C9.05913 11.568 8.61113 10.256 9.31513 8.49595C9.31513 8.49595 10.3871 8.15995 12.8351 9.80795C13.8591 9.51995 14.9471 9.37595 16.0351 9.37595C17.1231 9.37595 18.2111 9.51995 19.2351 9.80795C21.6831 8.14395 22.7551 8.49595 22.7551 8.49595C23.4591 10.256 23.0111 11.568 22.8831 11.888C23.6991 12.784 24.1951 13.92 24.1951 15.328C24.1951 20.24 21.2031 21.3279 18.3551 21.6479C18.8191 22.048 19.2191 22.8159 19.2191 24.0159C19.2191 25.7279 19.2031 27.104 19.2031 27.5359C19.2031 27.872 19.4431 28.2719 20.0831 28.1439C22.6241 27.2861 24.8321 25.6529 26.3964 23.4745C27.9606 21.296 28.8024 18.6819 28.8031 16C28.8031 8.92795 23.0751 3.19995 16.0031 3.19995Z" fill="currentcolor"/>
</g>
<defs>
<clipPath id="clip0_702_20528">
<rect width="25.6" height="25.6" fill="white" transform="translate(3.20312 3.19995)"/>
</clipPath>
</defs>
</svg>
