<svg width="24" height="24" viewBox="0 0 24 24" fill="currentcolor" xmlns="http://www.w3.org/2000/svg">
<path fill-rule="evenodd" clip-rule="evenodd" d="M9.9432 9.5752H12.9144V11.0552C13.3424 10.204 14.44 9.4392 16.0888 9.4392C19.2496 9.4392 20 11.1336 20 14.2424V20H16.8V14.9504C16.8 13.18 16.372 12.1816 15.2824 12.1816C13.7712 12.1816 13.1432 13.2576 13.1432 14.9496V20H9.9432V9.5752ZM4.456 19.864H7.656V9.4392H4.456V19.864ZM8.1144 6.04C8.11452 6.30822 8.06132 6.57379 7.95791 6.82127C7.85449 7.06875 7.70292 7.29321 7.512 7.4816C7.12512 7.8661 6.60145 8.08132 6.056 8.08C5.51151 8.07963 4.98905 7.86496 4.6016 7.4824C4.41137 7.29337 4.26031 7.06866 4.15707 6.82115C4.05384 6.57363 4.00046 6.30818 4 6.04C4 5.4984 4.216 4.98 4.6024 4.5976C4.98951 4.21453 5.51219 3.99976 6.0568 4C6.6024 4 7.1256 4.2152 7.512 4.5976C7.8976 4.98 8.1144 5.4984 8.1144 6.04Z"/>
</svg>
