<svg width="32" height="32" viewBox="0 0 32 32" fill="none" xmlns="http://www.w3.org/2000/svg">
<path d="M13.9698 11.227C13.8292 11.3677 13.7502 11.5584 13.7502 11.7573C13.7502 11.9562 13.8292 12.1469 13.9698 12.2875L17.6823 16L13.9698 19.7125C13.8332 19.854 13.7576 20.0434 13.7593 20.2401C13.761 20.4367 13.8399 20.6248 13.979 20.7639C14.118 20.903 14.3061 20.9818 14.5028 20.9835C14.6994 20.9852 14.8889 20.9097 15.0303 20.773L19.2731 16.5303C19.4137 16.3896 19.4927 16.1989 19.4927 16C19.4927 15.8012 19.4137 15.6104 19.2731 15.4698L15.0303 11.227C14.8897 11.0864 14.699 11.0074 14.5001 11.0074C14.3012 11.0074 14.1105 11.0864 13.9698 11.227Z" fill="#333333"/>
<circle cx="16" cy="16" r="15.5" stroke="#2F6DF2"/>
</svg>
