<svg xmlns="http://www.w3.org/2000/svg" width="24" height="24" viewBox="0 0 24 24" fill="currentcolor">
  <path fill-rule="evenodd" clip-rule="evenodd" d="M12 0C5.37258 0 0 5.37258 0 12C0 18.6274 5.37258 24 12 24C18.6274 24 24 18.6274 24 12C24 5.37258 18.6274 0 12 0ZM4.43304 12.282C4.3131 12.382 4.3131 12.5662 4.43304 12.6661L9.31912 16.7379C9.42519 16.8263 9.43952 16.9839 9.35113 17.09L8.71094 17.8582C8.62255 17.9643 8.46491 17.9786 8.35884 17.8902L2.08996 12.6661C1.97002 12.5662 1.97003 12.382 2.08996 12.282L8.35884 7.05795C8.46491 6.96956 8.62255 6.98389 8.71094 7.08996L9.35113 7.85818C9.43952 7.96425 9.42519 8.12189 9.31912 8.21028L4.43304 12.282ZM19.6091 12.282C19.7291 12.382 19.7291 12.5662 19.6091 12.6661L14.7231 16.7379C14.617 16.8263 14.6027 16.9839 14.691 17.09L15.3312 17.8582C15.4196 17.9643 15.5773 17.9786 15.6833 17.8902L21.9522 12.6661C22.0721 12.5662 22.0721 12.382 21.9522 12.282L15.6833 7.05795C15.5773 6.96956 15.4196 6.98389 15.3312 7.08996L14.691 7.85818C14.6027 7.96425 14.617 8.12189 14.7231 8.21028L19.6091 12.282ZM8.50002 12.3025L11.682 9.12052C11.8773 8.92526 12.1938 8.92526 12.3891 9.12052L15.5711 12.3025L14.864 13.0096L12.5356 10.6812V16.4741H11.5356L11.5356 10.6812L9.20713 13.0096L8.50002 12.3025Z"/>
</svg>