<svg width="18" height="18" viewBox="0 0 18 18" fill="currentcolor" xmlns="http://www.w3.org/2000/svg">
<path fill-rule="evenodd" clip-rule="evenodd" d="M6.8588 6.474H9.9538V8.01567C10.3996 7.129 11.543 6.33234 13.2605 6.33234C16.553 6.33234 17.3346 8.09734 17.3346 11.3357V17.3332H14.0013V12.0732C14.0013 10.229 13.5555 9.189 12.4205 9.189C10.8463 9.189 10.1921 10.3098 10.1921 12.0723V17.3332H6.8588V6.474ZM1.14297 17.1915H4.4763V6.33234H1.14297V17.1915ZM4.9538 2.7915C4.95393 3.0709 4.89852 3.34753 4.79079 3.60533C4.68307 3.86312 4.52518 4.09693 4.3263 4.29317C3.9233 4.69369 3.37781 4.91788 2.80964 4.9165C2.24246 4.91612 1.69823 4.6925 1.29464 4.294C1.09648 4.0971 0.939124 3.86302 0.831588 3.6052C0.724053 3.34737 0.668451 3.07086 0.667969 2.7915C0.667969 2.22734 0.892969 1.68734 1.29547 1.289C1.69871 0.889969 2.24317 0.666255 2.81047 0.666504C3.3788 0.666504 3.9238 0.890671 4.3263 1.289C4.72797 1.68734 4.9538 2.22734 4.9538 2.7915Z"/>
</svg>
