<svg width="24" height="24" viewBox="0 0 24 24" fill="none" xmlns="http://www.w3.org/2000/svg">
<path d="M21.75 5.7072C21.0329 6.03794 20.2626 6.26142 19.4527 6.36243C20.2883 5.84199 20.9135 5.02289 21.2115 4.05796C20.4265 4.54334 19.5672 4.88499 18.6712 5.06807C18.0686 4.39842 17.2705 3.95456 16.4008 3.80541C15.531 3.65627 14.6383 3.81017 13.8612 4.24323C13.0841 4.67628 12.4661 5.36427 12.1032 6.20037C11.7402 7.03647 11.6526 7.9739 11.854 8.86712C10.2632 8.78399 8.70703 8.35362 7.28639 7.60396C5.86575 6.8543 4.61243 5.8021 3.60777 4.51564C3.26425 5.13243 3.06672 5.84754 3.06672 6.60914C3.06634 7.29476 3.22855 7.96987 3.53896 8.57458C3.84937 9.17929 4.29839 9.6949 4.84616 10.0757C4.21089 10.0546 3.58963 9.87596 3.03409 9.55453V9.60816C3.03402 10.5698 3.35359 11.5018 3.93857 12.246C4.52354 12.9903 5.33789 13.501 6.24344 13.6915C5.65411 13.8575 5.03625 13.8819 4.43651 13.763C4.69201 14.5904 5.18968 15.3139 5.85987 15.8323C6.53005 16.3507 7.3392 16.6379 8.17403 16.6538C6.75686 17.8118 5.00666 18.4399 3.20499 18.4372C2.88584 18.4373 2.56696 18.4179 2.25 18.3791C4.0788 19.603 6.20766 20.2525 8.38186 20.25C15.7418 20.25 19.7653 13.9051 19.7653 8.4023C19.7653 8.22352 19.761 8.04295 19.7533 7.86417C20.5359 7.27507 21.2115 6.54558 21.7483 5.70988L21.75 5.7072Z" fill="#4F4F4F"/>
</svg>
