<svg width="20" height="25" viewBox="0 0 20 25" fill="none" xmlns="http://www.w3.org/2000/svg">
<path fill-rule="evenodd" clip-rule="evenodd" d="M9.81083 0.150314C9.50123 0.273834 8.95842 0.38127 8.60458 0.38899C7.83371 0.405717 6.53015 0.782228 5.96048 1.15279C5.03617 1.75414 4.02099 2.74825 4.01987 3.05319C4.01922 3.23011 3.69112 3.88149 3.29065 4.50069C2.52106 5.69086 2.51672 5.70228 2.24732 7.28038C2.12107 8.01924 2.12525 8.63604 2.2626 9.57579C2.43839 10.7772 2.41507 11.9429 2.15468 14.984C2.08231 15.829 2.12268 16.3255 2.30474 16.8336C2.44177 17.2157 2.5981 17.8674 2.6523 18.282C2.7065 18.6965 2.92797 19.2969 3.14461 19.616C3.36109 19.9351 3.53833 20.2188 3.53833 20.2463C3.53833 20.2738 3.06597 20.3404 2.48873 20.3942C1.56459 20.4806 0 20.9914 0 21.2069C0 21.2499 0.48829 21.1455 1.08514 20.9747C1.682 20.804 2.62094 20.6644 3.17179 20.6644C4.1183 20.6644 4.18697 20.6905 4.41873 21.1389C4.55367 21.3999 4.66417 21.7634 4.66417 21.9468C4.66417 22.3501 5.71393 23.5191 6.77736 24.2996C7.45141 24.7945 7.71115 24.8825 8.72408 24.959C9.87758 25.0462 9.90219 25.0399 10.6158 24.4722C11.8721 23.4724 12.3914 22.8925 12.8598 21.9666C13.2554 21.1846 14.4102 19.9117 14.8136 19.8132C14.8883 19.7948 15.078 20.0267 15.2349 20.3286C15.4812 20.802 15.7689 20.9818 17.3298 21.6383C18.325 22.0569 19.1392 22.3402 19.1392 22.2678C19.1392 22.1953 18.381 21.7507 17.4543 21.2796C15.7723 20.4246 15.7692 20.4221 15.6668 19.7387C15.5098 18.6928 15.7363 17.3386 16.1768 16.6894C16.3908 16.3742 16.5658 15.9599 16.5658 15.7687C16.5658 15.5776 16.6461 15.341 16.744 15.2431C16.8745 15.1126 16.8714 14.911 16.7329 14.4912C16.5359 13.8943 16.7538 12.9509 17.5371 11.0095C17.6989 10.6087 17.9157 9.64495 18.0191 8.86796L18.2071 7.4552L17.3869 5.85475C16.3444 3.82069 15.8966 3.10563 14.9778 2.00778C14.0345 0.880497 13.8722 0.754886 13.1883 0.621555C12.8787 0.561082 12.4807 0.418423 12.3037 0.304392C11.7971 -0.0222606 10.4514 -0.105411 9.81083 0.150314ZM12.545 0.721111C13.4486 1.03104 13.7585 1.19235 13.4592 1.19686C13.2102 1.20056 12.858 1.12416 12.6767 1.02718C12.4175 0.888378 12.3621 0.896419 12.4184 1.06497C12.4577 1.18286 12.7193 1.33453 12.9998 1.40224C13.2805 1.46995 13.7453 1.58221 14.0327 1.65185C14.3264 1.7231 14.5554 1.88168 14.5554 2.01373C14.5554 2.30998 13.8006 2.41018 13.357 2.17279C13.1758 2.07581 13.0275 2.05973 13.0275 2.13709C13.0275 2.34698 13.7804 2.65031 14.5701 2.75855C15.4596 2.88046 15.8392 3.29412 15.8521 4.15571C15.8574 4.52241 15.9165 4.98512 15.9835 5.18424C16.0504 5.38319 16.0433 5.54611 15.968 5.54611C15.6896 5.54611 15.2792 4.5914 15.2792 3.94373C15.2792 3.53923 15.2156 3.31471 15.1183 3.37486C15.0299 3.42954 14.9575 3.79319 14.9575 4.18289C14.9575 4.73165 15.0611 5.01086 15.4164 5.41986C16.2554 6.38582 16.611 7.58741 16.1668 7.95604C15.964 8.12443 15.9225 8.11076 15.9225 7.87626C15.9225 7.64869 15.8598 7.67329 15.6008 8.00252C15.3922 8.26773 15.2869 8.62864 15.301 9.02944C15.3142 9.40161 15.3507 9.50342 15.3927 9.28549C15.5011 8.72209 15.8895 8.85944 16.0748 9.52674C16.167 9.85854 16.2427 10.1942 16.2432 10.273C16.2437 10.3516 16.3479 10.4964 16.4746 10.5947C16.7535 10.8107 16.8767 11.8429 16.6337 11.9275C16.4201 12.0018 16.0833 11.2967 16.0833 10.7751C16.0833 10.0318 15.4228 10.1236 14.8871 10.9414C14.5487 11.4579 14.6804 11.652 15.1072 11.2658C15.7662 10.6695 16.0139 11.6443 15.4418 12.5826C15.1269 13.0992 15.1267 13.1053 15.4368 13.1053C15.9064 13.1053 16.1277 13.6426 15.9392 14.3255C15.8059 14.808 15.8163 14.8685 16.0057 14.7114C16.4783 14.3191 16.737 14.8764 16.3309 15.4124C16.1166 15.695 16.0845 15.6863 15.6525 15.231C15.4028 14.9682 14.9274 14.5936 14.5956 14.3985L13.9925 14.0441L13.9949 14.5798C13.9968 14.9793 14.0361 15.0544 14.1495 14.8752C14.2799 14.6689 14.3364 14.6803 14.5479 14.9557C14.6834 15.1321 14.8411 15.4575 14.8982 15.6786C15.0599 16.3054 15.1328 16.3628 15.3699 16.0501C15.5521 15.8098 15.5915 15.8025 15.5957 16.0083C15.5986 16.1453 15.5153 16.3432 15.4106 16.4479C15.3059 16.5526 15.2624 16.6804 15.3139 16.7319C15.3655 16.7835 15.5589 16.6634 15.7438 16.4649C15.9286 16.2665 16.1216 16.1458 16.1726 16.1967C16.2236 16.2476 16.0433 16.5162 15.7721 16.7937C15.3897 17.185 15.2792 17.441 15.2792 17.9357C15.2792 18.6405 15.1389 18.7402 14.834 18.2519C14.7235 18.075 14.4617 17.9303 14.2519 17.9303C14.0361 17.9303 13.7654 17.7733 13.6274 17.5684C13.3955 17.2236 13.3873 17.2406 13.4534 17.9303C13.5057 18.4757 13.4468 18.7496 13.215 19.0413L12.9074 19.4286L12.6325 19.009C12.4635 18.751 12.3988 18.4589 12.4649 18.251C12.6013 17.8212 12.9103 17.9161 13.0304 18.4247C13.1118 18.7684 13.1362 18.7798 13.2359 18.5202C13.4058 18.0781 13.3884 18.024 12.8667 17.3674C12.6013 17.0335 12.3842 16.6631 12.3842 16.5444C12.3842 16.4257 12.6737 16.1807 13.0275 16.0003C13.9296 15.5401 13.8283 15.4592 12.8265 15.8401C11.8058 16.228 11.8073 16.2279 12.0831 15.8936C12.2044 15.7466 12.229 15.6561 12.1376 15.6926C10.5869 16.3118 10.4696 16.3975 10.3705 16.9839C10.3076 17.3563 10.3633 17.7862 10.524 18.1707C10.8456 18.9406 10.8625 18.8958 10.2531 18.8929C9.8594 18.8909 9.78992 18.8525 9.97167 18.7369C10.1611 18.6162 10.1007 18.5606 9.69021 18.4779C9.12681 18.3644 8.97273 18.0911 9.47196 18.0911C9.90846 18.0911 10.0569 17.6007 9.65241 17.4951C9.47614 17.4489 9.3716 17.3471 9.42001 17.2686C9.46858 17.1903 9.39637 17.1261 9.25966 17.1261C8.8246 17.1261 8.18497 18.2947 8.19205 19.0767C8.20137 20.0813 8.03234 21.1469 7.86395 21.1469C7.78482 21.1469 7.71341 21.0204 7.70553 20.8655C7.69748 20.7106 7.62607 20.8079 7.54662 21.0816C7.43725 21.458 7.24249 21.6418 6.74599 21.8369L6.08995 22.0946L6.19401 21.6208C6.25899 21.3247 6.23294 21.1469 6.12437 21.1469C6.029 21.1469 5.95083 21.2193 5.95083 21.3078C5.95083 21.3962 5.84517 21.4686 5.71586 21.4686C5.58655 21.4686 5.33323 21.627 5.15294 21.8207C4.8012 22.1982 4.72609 22.1148 4.9839 21.6331C5.11434 21.3895 4.99918 21.1897 4.34057 20.5171C3.72892 19.8924 3.53447 19.5738 3.52225 19.1759C3.50408 18.5844 3.25816 17.6893 3.23275 18.1218C3.2239 18.2714 3.13432 18.4446 3.0338 18.5069C2.89966 18.5897 2.87104 18.1627 2.92685 16.908C3.00083 15.2476 2.91864 14.895 2.59344 15.4763C2.30571 15.9905 2.23607 15.5688 2.43759 14.5327C2.54744 13.9688 2.62319 13.0369 2.60598 12.4619C2.57269 11.3504 2.68302 10.5881 2.85254 10.7576C2.90899 10.814 3.08687 10.5151 3.24787 10.093C3.47303 9.50261 3.53158 8.95481 3.50215 7.71736C3.46483 6.15374 3.47866 6.08313 4.00298 5.17684C4.56365 4.20782 4.60289 3.80975 4.07439 4.45196C3.9068 4.65574 3.59286 4.96711 3.3767 5.14403L2.98362 5.46569L3.38795 4.90278C3.61023 4.59317 3.9261 4.03444 4.08967 3.66098C4.43305 2.87724 5.90355 1.5248 6.84635 1.12529C7.19424 0.977962 8.02156 0.822275 8.685 0.779333C10.2197 0.680098 10.6523 0.589871 10.5317 0.39478C10.3585 0.114609 11.1511 0.242954 12.545 0.721111ZM14.5488 3.78756C14.2817 4.22004 14.452 5.10237 14.8911 5.56075C15.1376 5.81808 15.2571 6.02861 15.1566 6.02861C14.8787 6.02861 14.1545 5.00072 13.9755 4.35241C13.7307 3.46605 13.4581 3.63541 13.5425 4.62132C13.6173 5.49416 14.741 8.28382 15.0379 8.33367C15.3205 8.38112 15.3187 7.1583 15.0355 6.72614C14.612 6.07976 14.8731 6.11723 15.4405 6.78437C15.8871 7.30933 15.9444 7.33892 15.8455 6.99361C15.7823 6.77247 15.7219 6.46061 15.7116 6.30042C15.7012 6.14039 15.4884 5.78061 15.2388 5.50092C14.7391 4.94122 14.5554 4.42349 14.6831 3.9352C14.7746 3.58555 14.7145 3.51945 14.5488 3.78756ZM16.6607 5.18568L16.8989 5.78736L16.491 5.33606C16.262 5.08259 16.0854 4.69498 16.0882 4.45148C16.0925 4.07802 16.1158 4.05728 16.2578 4.3011C16.3485 4.45679 16.5298 4.85485 16.6607 5.18568ZM4.03386 5.68266C3.81754 6.08683 3.81127 6.35028 4.01778 6.35028C4.19437 6.35028 4.42967 5.57973 4.29441 5.44446C4.2468 5.3967 4.12956 5.50397 4.03386 5.68266ZM3.04232 6.54521C2.5394 7.82126 2.3977 7.98547 2.51656 7.15444C2.66083 6.14473 2.84643 5.70694 3.12998 5.70694C3.33536 5.70694 3.32185 5.83625 3.04232 6.54521ZM9.82852 5.88113C9.61703 5.96573 9.20224 6.14972 8.90679 6.2898C8.4801 6.49229 8.26603 6.5087 7.86555 6.3691C7.58828 6.27243 7.30569 6.22772 7.2375 6.26986C7.16947 6.31184 6.63743 6.41381 6.05521 6.49631C5.473 6.57866 4.83127 6.7633 4.62927 6.90644C4.27431 7.15814 4.28637 7.16313 4.98583 7.05843L5.70958 6.95002L5.02604 7.59046C4.65017 7.94269 4.3425 8.30842 4.3425 8.40332C4.3425 8.49805 4.29859 8.69008 4.24487 8.83001C4.17009 9.02478 4.25308 9.08444 4.59871 9.08444C4.93871 9.08444 5.00449 9.03877 4.86537 8.89965C4.72625 8.76053 4.74121 8.59792 4.92552 8.24136C5.06014 7.98097 5.20714 7.80453 5.25201 7.84941C5.29688 7.89428 5.25539 8.07731 5.15969 8.25599C4.91748 8.70842 4.93244 8.75039 5.39757 8.92731C5.63673 9.01818 5.76314 9.15859 5.69913 9.26217C5.62209 9.38697 5.75204 9.40708 6.13177 9.32923C6.80293 9.19156 7.58796 8.34365 7.50497 7.84603C7.43758 7.44185 7.66371 7.31528 8.45356 7.31528C8.89521 7.31528 9.1281 7.45424 9.66721 8.03903C10.2337 8.65373 10.4268 8.76278 10.9476 8.76278C11.285 8.76278 11.6057 8.6904 11.6604 8.60194C11.7151 8.51349 11.6289 8.43999 11.4689 8.4387C11.2213 8.43661 11.2139 8.41232 11.4192 8.2761C11.5519 8.18812 11.9137 8.15338 12.2233 8.1989C12.7423 8.27529 12.8068 8.23734 13.0499 7.71286C13.2958 7.18243 13.2954 7.14978 13.0437 7.22971C12.8953 7.27684 12.49 7.17053 12.1429 6.99361C11.796 6.81669 11.3421 6.67194 11.1345 6.67194C10.9236 6.67194 10.8008 6.60086 10.8562 6.51111C10.9109 6.42265 11.3175 6.35028 11.7598 6.35028C12.255 6.35028 12.5259 6.28852 12.4646 6.18944C12.4099 6.10099 12.1204 6.02861 11.8212 6.02861C11.5221 6.02861 11.2326 5.95624 11.1779 5.86778C11.0549 5.66851 10.3421 5.67558 9.82852 5.88113ZM17.4568 7.32766C17.6531 7.70723 17.6516 7.79167 17.4462 7.96215C17.3158 8.07039 17.2092 8.26628 17.2092 8.39752C17.2092 8.53439 17.1144 8.60001 16.9875 8.55128C16.8656 8.50448 16.6847 8.54742 16.5855 8.64666C16.4521 8.77999 16.405 8.77677 16.405 8.63411C16.405 8.52796 16.4774 8.44111 16.5658 8.44111C16.6543 8.44111 16.7267 8.21015 16.7267 7.92789C16.7267 7.44201 16.7392 7.43124 16.9628 7.72685C17.2737 8.13794 17.2764 7.78732 16.9679 7.0491C16.7493 6.52623 16.7503 6.49133 16.9785 6.68079C17.117 6.79563 17.3322 7.08673 17.4568 7.32766ZM12.0485 7.27507C12.8733 7.74454 12.6481 8.00011 11.7994 7.55749C11.5461 7.42545 11.2122 7.31689 11.0573 7.31624C10.9024 7.31576 10.7758 7.2429 10.7758 7.15444C10.7758 6.8984 11.5088 6.96788 12.0485 7.27507ZM17.6233 9.20636C17.4293 9.40048 17.3369 9.08074 17.4623 8.64971L17.5934 8.19986L17.6547 8.65679C17.6883 8.90817 17.6743 9.15553 17.6233 9.20636ZM2.82761 10.1706C2.64201 10.356 2.5468 10.0654 2.67337 9.69963L2.80268 9.32569L2.86187 9.7014C2.89436 9.90807 2.87892 10.1191 2.82761 10.1706ZM6.03012 10.9295C5.04808 11.9926 4.17925 13.4781 4.40651 13.7055C4.55979 13.8586 4.81294 13.5598 5.36267 12.5769C6.14946 11.1698 6.39329 10.9786 7.22898 11.1121C7.68622 11.1852 7.83725 11.2647 7.69282 11.3562C7.34445 11.5772 7.73978 11.5074 8.685 11.1811C9.17152 11.0132 9.56958 10.7804 9.56958 10.6637C9.56958 10.3783 8.24351 9.74274 7.63106 9.73437C7.22286 9.7289 6.95299 9.93027 6.03012 10.9295ZM10.1396 10.5453C10.2382 10.7294 10.7097 11.2904 11.1872 11.7918C11.928 12.5692 12.0562 12.65 12.0591 12.3413C12.0612 12.1157 11.7325 11.6468 11.185 11.0949C10.2723 10.1749 9.8118 9.93284 10.1396 10.5453ZM3.24272 11.1931C2.92572 12.0394 2.87763 12.3011 3.03879 12.3011C3.12982 12.3011 3.28422 12.0044 3.38184 11.6415C3.57693 10.9173 3.47223 10.58 3.24272 11.1931ZM6.60237 12.1403C6.48191 12.3614 6.13 12.8531 5.8204 13.2328L5.25732 13.9234L5.60408 14.3924C5.95662 14.8691 6.09896 16.2115 5.81557 16.3866C5.74111 16.4326 5.51562 16.2473 5.31409 15.9749C5.04116 15.6058 4.91474 15.5335 4.81712 15.6913C4.7256 15.8394 4.65452 15.7606 4.58069 15.429C4.40619 14.6449 4.36855 14.6067 4.35521 15.2005C4.34588 15.6151 4.47004 15.9073 4.81599 16.2861C5.07638 16.5712 5.36588 16.8044 5.45933 16.8044C5.67516 16.8044 5.68256 17.3958 5.46833 17.5282C5.37987 17.5829 5.3075 17.5682 5.3075 17.4959C5.3075 17.3209 4.48934 16.4432 4.4049 16.5276C4.36872 16.5638 4.45171 16.9124 4.58922 17.3021C4.75086 17.7598 4.80297 18.2384 4.73654 18.654C4.64229 19.2432 4.65339 19.2711 4.86891 18.987C5.10019 18.682 5.10758 18.6825 5.28691 19.0175C5.38727 19.205 5.54039 19.6343 5.62724 19.9713C5.76523 20.5073 5.77536 20.4566 5.7083 19.5669C5.65731 18.8905 5.73837 18.0602 5.95067 17.0882C6.38975 15.0761 6.75323 14.5557 7.95482 14.2184C9.14225 13.8852 10.2933 14.5964 10.2933 15.6632C10.2933 15.8486 10.375 16.0003 10.4748 16.0003C10.5939 16.0003 10.6237 15.7936 10.5613 15.3972C10.5092 15.0655 10.5307 14.5131 10.609 14.1695C10.7971 13.346 10.5997 12.8832 9.94497 12.6107C9.32721 12.3535 7.69571 12.3569 7.01249 12.6167C6.60719 12.7707 6.57213 12.7627 6.74438 12.5552C6.85327 12.424 6.91519 12.1864 6.8819 12.0274C6.83027 11.7807 6.78926 11.7972 6.60237 12.1403ZM14.159 12.2905C14.0674 12.4616 13.9925 12.7149 13.9925 12.8534C13.9925 13.2986 14.2302 13.1223 14.4116 12.5424C14.6001 11.9402 14.4346 11.7753 14.159 12.2905ZM14.4803 12.9149C14.4727 13.2177 14.7801 13.7486 14.9631 13.7486C15.2073 13.7486 15.146 13.4958 14.802 13.0829C14.621 12.8658 14.4834 12.7937 14.4803 12.9149ZM3.01562 13.3726C3.12628 13.4173 3.30722 13.4173 3.41771 13.3726C3.52836 13.328 3.43781 13.2915 3.21667 13.2915C2.99552 13.2915 2.90513 13.328 3.01562 13.3726ZM10.8931 14.1674C10.8286 14.2319 10.7758 14.3956 10.7758 14.5314C10.7758 14.7123 10.8234 14.7303 10.9547 14.5989C11.0531 14.5007 11.1059 14.3368 11.0721 14.2351C11.0382 14.1333 10.9576 14.1029 10.8931 14.1674ZM13.0529 14.3919C13.0529 14.6131 13.0894 14.7036 13.134 14.593C13.1787 14.4825 13.1787 14.3016 13.134 14.1909C13.0894 14.0804 13.0529 14.1708 13.0529 14.3919ZM5.08169 14.8494C5.0217 14.9465 5.09584 15.2632 5.24638 15.5533C5.58574 16.2069 5.71891 15.9292 5.41397 15.2038C5.28531 14.8978 5.14458 14.7477 5.08169 14.8494ZM10.9754 15.033C10.6404 15.5696 10.7527 15.7565 11.1729 15.3616C11.3913 15.1564 11.5319 14.9267 11.4851 14.8511C11.3498 14.6322 11.19 14.6893 10.9754 15.033ZM3.54541 15.884C3.37621 16.2221 3.36721 16.376 3.50778 16.5166C3.77685 16.7856 3.89088 16.5913 3.8259 15.9755L3.76897 15.4374L3.54541 15.884ZM8.60458 15.6786C8.5499 15.7671 8.57756 15.8394 8.66602 15.8394C8.75448 15.8394 8.87157 15.7671 8.92625 15.6786C8.98093 15.5902 8.95327 15.5178 8.86481 15.5178C8.77635 15.5178 8.65927 15.5902 8.60458 15.6786ZM6.755 16.4046C6.755 16.4501 6.9903 16.7013 7.27771 16.9629C7.79752 17.4357 7.79816 17.4384 7.40268 17.4431L7.0051 17.4478L7.36247 17.6982C7.55917 17.8359 7.72 18.053 7.72 18.1807C7.72 18.3084 7.79237 18.4128 7.88083 18.4128C7.96929 18.4128 8.04167 18.086 8.04167 17.6866C8.04167 17.0401 7.98441 16.9257 7.51896 16.6418C6.99705 16.3237 6.755 16.2484 6.755 16.4046ZM8.43458 16.7108C7.96881 17.0515 8.2366 17.1647 8.81978 16.8738C9.09947 16.7342 9.32833 16.5891 9.32833 16.5515C9.32833 16.3924 8.72231 16.5005 8.43458 16.7108ZM11.8623 16.6838C12.2183 17.1288 12.2534 17.6501 11.9697 18.2793C11.6646 18.9561 11.6981 19.1603 12.36 20.6635L12.6084 21.2274L12.7092 20.6644C12.8056 20.1271 12.8155 20.1199 12.9268 20.5059C13.1364 21.2332 12.3892 22.589 11.2572 23.5347C10.7117 23.9906 10.1991 24.3636 10.1185 24.3636C9.82627 24.3636 9.98083 24.0894 10.3737 23.9104C10.9315 23.6563 10.9576 22.5557 10.414 22.2128C9.80585 21.8294 9.32833 21.7372 9.32833 22.0035C9.32833 22.1327 9.21752 22.281 9.08194 22.3329C8.87285 22.4132 8.8505 22.3003 8.93413 21.5862C8.98833 21.1235 9.0599 20.6566 9.09303 20.5488C9.12633 20.4409 9.04864 20.1514 8.9203 19.9055C8.58158 19.2562 8.63193 19.1111 9.05717 19.5106C9.50766 19.9336 9.63022 19.9434 9.91377 19.5788C10.1212 19.3118 10.1436 19.3117 10.3495 19.5762C10.596 19.8934 10.7758 19.7921 10.7758 19.336C10.7758 19.1587 10.917 18.989 11.1057 18.9397C11.3791 18.8683 11.4187 18.7676 11.3367 18.3517C11.2823 18.0757 11.1158 17.6118 10.9669 17.321C10.7282 16.8551 10.7247 16.7742 10.937 16.6399C11.2735 16.4273 11.6722 16.4461 11.8623 16.6838ZM3.96728 17.3942C3.72088 17.6406 3.86997 19.0547 4.20161 19.6168C4.6098 20.3087 4.79492 20.2427 4.49272 19.5129C4.37451 19.2277 4.27431 18.6103 4.26996 18.1408C4.2624 17.3202 4.19855 17.1628 3.96728 17.3942ZM6.44523 18.025C6.61733 18.2325 6.61347 18.302 6.42304 18.4226C6.26269 18.5241 6.25352 18.5694 6.39312 18.5712C6.50378 18.5725 6.59417 18.6543 6.59417 18.7533C6.59417 18.8536 6.45231 18.8958 6.2725 18.8486C5.87058 18.7436 5.87058 18.8422 6.27314 19.5023C6.44974 19.7919 6.59642 20.2262 6.59899 20.4673C6.60349 20.8652 6.62038 20.8774 6.78154 20.6C6.95122 20.3076 6.96778 20.3108 7.16287 20.6752C7.3459 21.0172 7.35796 20.9786 7.28125 20.2974C7.22399 19.7902 7.25584 19.5386 7.37743 19.5386C7.4773 19.5386 7.55917 19.656 7.55917 19.7995C7.55917 20.0132 7.60275 20.0243 7.80042 19.8603C7.9331 19.7501 8.04167 19.5555 8.04167 19.4278C8.04167 19.0278 7.2404 18.1236 6.72734 17.9448C6.29051 17.7924 6.25947 17.8013 6.44523 18.025ZM8.57965 18.6609C8.52722 18.7975 8.44986 18.8747 8.40772 18.8326C8.36558 18.7904 8.37877 18.6786 8.43716 18.5844C8.59574 18.3277 8.68838 18.3776 8.57965 18.6609ZM14.0737 19.3511C14.0139 19.5898 14.0406 19.6887 14.1469 19.623C14.2389 19.5661 14.3119 19.5782 14.3092 19.6497C14.3021 19.83 13.5071 20.3936 13.4045 20.291C13.3587 20.245 13.408 19.7889 13.5142 19.2771C13.6933 18.4139 13.7239 18.3695 13.9375 18.6613C14.0686 18.8404 14.1273 19.1372 14.0737 19.3511ZM9.49158 20.4539C9.49303 20.5255 9.56428 20.6926 9.65 20.8253C9.7843 21.0332 9.80617 21.0289 9.80842 20.7946C9.80971 20.645 9.73846 20.4779 9.65 20.4232C9.56154 20.3685 9.49029 20.3823 9.49158 20.4539ZM10.2933 21.2203C10.2933 21.2605 10.4743 21.5601 10.6954 21.886C10.9166 22.2118 11.0975 22.6131 11.0975 22.7778C11.0975 23.1553 11.2398 23.1487 11.7204 22.7484C12.0273 22.4926 12.0824 22.3324 12.002 21.9299C11.9242 21.541 11.9483 21.4607 12.1104 21.5696C12.2251 21.6468 12.1809 21.5833 12.012 21.4284C11.7395 21.1785 10.2933 21.0033 10.2933 21.2203ZM8.36333 21.6294C8.36333 21.838 7.76777 22.4336 7.55917 22.4336C7.33078 22.4336 7.35957 22.2388 7.64875 21.8261C7.90303 21.4628 8.36333 21.3362 8.36333 21.6294ZM7.00461 22.9426C7.09967 23.2418 7.12395 23.2449 7.40284 22.9925C7.56608 22.8447 7.77661 22.7714 7.8707 22.8294C8.04472 22.937 8.11452 24.398 7.95337 24.5592C7.61626 24.8963 6.43333 23.4303 6.43333 22.6757C6.43333 22.3453 6.88158 22.555 7.00461 22.9426ZM9.65225 22.9563C9.65338 23.1554 9.69503 23.4991 9.74457 23.7203C9.82901 24.0966 9.81936 24.1037 9.5958 23.8296C9.36484 23.5467 9.35133 23.5467 9.18664 23.8296C9.02934 24.1002 9.01616 24.0957 9.01149 23.7709C9.0049 23.2892 9.28459 22.5944 9.48515 22.5944C9.57586 22.5944 9.65096 22.7572 9.65225 22.9563ZM10.2473 23.3526C10.1 23.5001 9.93789 23.5794 9.88739 23.5289C9.83689 23.4782 9.91618 23.3163 10.0635 23.1688C10.211 23.0215 10.3729 22.9422 10.4236 22.9927C10.4741 23.0432 10.3948 23.2053 10.2473 23.3526Z" fill="black"/>
</svg>
