<?xml version="1.0" standalone="no"?>
<!DOCTYPE svg PUBLIC "-//W3C//DTD SVG 20010904//EN"
 "http://www.w3.org/TR/2001/REC-SVG-20010904/DTD/svg10.dtd">
<svg version="1.0" xmlns="http://www.w3.org/2000/svg"
 width="660.000000pt" height="660.000000pt" viewBox="0 0 660.000000 660.000000"
 preserveAspectRatio="xMidYMid meet">
<metadata>
Created by potrace 1.11, written by Peter Selinger 2001-2013
</metadata>
<g transform="translate(0.000000,660.000000) scale(0.100000,-0.100000)"
fill="#000000" stroke="none">
<path d="M1646 6019 c-41 -111 -54 -165 -70 -279 -22 -153 -10 -322 32 -458
16 -52 16 -52 -9 -80 -153 -171 -262 -416 -288 -652 -14 -125 -5 -384 18 -535
15 -99 19 -119 43 -204 11 -42 21 -80 22 -84 0 -5 -150 -10 -334 -12 -184 -2
-351 -6 -370 -9 -19 -2 -73 -7 -120 -11 -106 -8 -144 -12 -197 -19 -24 -3 -62
-9 -85 -12 -72 -9 -171 -25 -188 -29 -3 -1 -26 -5 -53 -9 -30 -5 -47 -13 -47
-22 0 -17 -5 -16 61 -4 69 13 94 17 149 25 25 3 52 8 60 10 17 4 75 11 165 20
33 3 80 8 105 10 25 3 86 8 135 11 50 3 115 7 145 10 30 2 163 3 295 3 132 0
252 0 267 0 23 1 30 -6 47 -43 37 -85 40 -81 -42 -82 -75 -1 -266 -12 -327
-19 -19 -2 -64 -7 -100 -10 -119 -11 -154 -16 -245 -30 -49 -7 -110 -17 -135
-20 -25 -3 -52 -8 -60 -10 -8 -2 -31 -6 -50 -9 -30 -4 -65 -12 -200 -41 -90
-19 -238 -57 -249 -64 -7 -5 -11 -13 -7 -19 4 -7 22 -5 53 5 27 8 59 17 72 19
14 3 28 7 31 9 4 2 21 7 38 10 17 3 81 16 144 29 62 14 131 27 153 30 22 4 65
11 95 16 30 5 78 12 105 16 28 3 58 8 67 9 9 2 48 7 85 10 37 4 76 9 85 10 9
2 57 7 105 10 48 4 98 8 110 10 13 2 89 7 171 10 l147 7 50 -79 c61 -97 216
-253 312 -316 187 -122 388 -199 659 -252 67 -13 150 -27 185 -31 35 -3 67 -8
70 -10 4 -2 -23 -34 -60 -72 -65 -66 -115 -149 -142 -237 -7 -22 -13 -42 -14
-45 -2 -19 -26 -33 -98 -56 -101 -32 -106 -33 -192 -40 -216 -19 -392 77 -528
289 -31 48 -84 113 -116 145 -58 56 -62 62 -126 232 -36 96 -73 191 -82 210
-9 19 -17 55 -18 79 -2 46 -18 63 -51 57 -75 -15 -152 -46 -192 -78 -17 -15
-15 -36 7 -60 16 -17 49 -91 96 -219 5 -12 -2 -18 -24 -22 -77 -16 -86 -129
-13 -171 39 -22 138 -94 148 -107 6 -8 35 -77 64 -154 29 -77 59 -152 67 -167
14 -29 59 -58 91 -58 11 0 35 -23 60 -60 63 -88 171 -162 300 -204 71 -24 199
-43 261 -40 127 6 231 19 289 34 l32 8 1 -56 c3 -300 -1 -606 -9 -614 -5 -5
-26 -11 -46 -14 -69 -8 -101 -13 -156 -23 -30 -6 -71 -13 -90 -16 -85 -14
-284 -67 -380 -100 -309 -108 -422 -243 -315 -376 25 -31 105 -89 165 -119 77
-39 273 -105 370 -125 8 -2 44 -10 80 -18 67 -16 212 -42 290 -52 25 -3 56 -8
70 -10 14 -3 50 -7 80 -9 59 -6 150 -14 215 -21 224 -23 895 -23 1095 -1 36 4
130 14 210 22 52 5 187 23 217 28 11 3 36 7 54 10 433 69 758 205 814 340 20
47 19 69 -5 115 -60 118 -304 231 -655 302 -55 11 -109 22 -120 25 -10 2 -37
6 -60 9 -22 3 -65 10 -95 15 -30 5 -70 11 -88 12 -18 1 -38 8 -44 15 -7 9 -11
171 -12 496 -2 470 -3 484 -25 562 -33 114 -76 190 -152 267 -37 38 -64 68
-60 69 3 0 13 2 21 3 8 2 40 6 70 10 430 51 787 197 982 403 49 52 150 201
167 247 9 22 23 30 51 28 3 0 70 -3 148 -7 79 -4 153 -8 163 -10 11 -2 54 -6
97 -9 42 -4 93 -8 112 -11 54 -7 132 -16 165 -20 50 -5 218 -30 265 -40 14 -3
52 -10 85 -15 82 -15 270 -58 329 -75 58 -18 89 -19 84 -3 -3 9 -100 42 -136
46 -4 1 -38 8 -77 17 -118 27 -149 34 -190 41 -22 4 -42 8 -45 9 -9 2 -105 18
-127 20 -12 2 -34 6 -50 9 -15 3 -48 8 -73 11 -25 3 -61 7 -80 10 -182 24
-380 41 -584 50 -54 3 -101 7 -104 10 -3 2 4 28 15 57 24 62 -5 57 313 58 255
0 482 -9 620 -25 19 -2 64 -7 100 -10 36 -4 76 -8 90 -10 14 -2 45 -7 70 -10
25 -3 72 -11 105 -17 33 -6 73 -12 90 -14 16 -2 38 -7 47 -10 12 -3 18 0 18
10 0 8 -12 17 -27 20 -26 5 -40 8 -113 20 -89 15 -238 36 -305 42 -276 25
-342 27 -667 28 -175 1 -318 1 -318 1 0 0 5 16 10 35 13 43 30 135 45 245 27
200 22 571 -9 673 -3 9 -8 31 -10 47 -25 148 -148 379 -275 516 l-47 51 13 61
c35 168 34 334 -3 497 -18 81 -53 191 -67 208 -23 29 -209 6 -347 -43 -100
-36 -285 -129 -395 -199 -55 -34 -96 -54 -106 -51 -10 3 -28 8 -41 10 -13 3
-45 9 -73 15 -27 6 -63 12 -80 14 -16 3 -48 7 -70 11 -76 11 -100 14 -190 21
-155 12 -486 6 -585 -10 -14 -3 -59 -10 -100 -16 -116 -17 -129 -19 -230 -43
l-95 -23 -80 52 c-196 127 -408 224 -566 260 -13 3 -65 8 -115 11 l-91 6 -17
-44z m1686 -3546 c12 -15 15 -54 16 -198 2 -394 3 -751 3 -767 -1 -15 -10 -18
-50 -18 -42 0 -49 3 -45 18 2 9 5 227 7 484 2 369 6 469 16 482 17 21 34 20
53 -1z m-407 -538 l0 -458 -48 -2 c-41 -2 -47 1 -48 19 -4 103 1 683 6 717 12
86 58 193 79 186 8 -3 11 -149 11 -462z m797 427 c53 -89 61 -159 62 -565 l1
-318 -50 3 -50 3 0 453 c0 306 3 452 10 452 6 0 18 -13 27 -28z"/>
<path d="M1180 2750 c-33 -110 -36 -146 -15 -170 23 -25 57 -26 80 0 21 23 17
56 -18 170 l-24 75 -23 -75z"/>
</g>
</svg>
