<svg xmlns="http://www.w3.org/2000/svg" width="24" height="24" viewBox="0 0 24 24" fill="currentcolor">
    <path fill-rule="evenodd" clip-rule="evenodd" d="M7 4.79547C7 2.2851 9.03506 0.25 11.5455 0.25H12.4545C14.9649 0.25 17 2.2851 17 4.79547C17 5.04651 16.7965 5.25 16.5455 5.25H7.45454C7.20351 5.25 7 5.04651 7 4.79547ZM3.21936 3.93512C2.81844 3.5553 2.1855 3.57239 1.80566 3.97333C1.42583 4.37427 1.44293 5.0072 1.84387 5.38702L4.34387 7.75547C4.44354 7.8499 4.5 7.98115 4.5 8.11845V11.75C4.5 12.0261 4.27614 12.25 4 12.25H1.5C0.947708 12.25 0.5 12.6977 0.5 13.25C0.5 13.8023 0.947708 14.25 1.5 14.25H4C4.27614 14.25 4.49826 14.4742 4.51638 14.7497C4.59238 15.9049 4.92993 16.9887 5.47038 17.9424C5.5888 18.1513 5.55815 18.4163 5.38379 18.5815L1.84387 21.9351C1.44293 22.3149 1.42583 22.9479 1.80566 23.3488C2.1855 23.7498 2.81844 23.7668 3.21936 23.387L6.6457 20.141C6.83506 19.9616 7.12943 19.9594 7.33354 20.1219C8.08664 20.7212 8.95766 21.1786 9.90617 21.4538C10.2098 21.5419 10.5 21.3044 10.5 20.9883V9.75C10.5 9.19772 10.9477 8.75 11.5 8.75H12.5C13.0523 8.75 13.5 9.19772 13.5 9.75V20.9883C13.5 21.3044 13.7902 21.5419 14.0938 21.4538C15.0558 21.1747 15.938 20.7082 16.6984 20.0963C16.9025 19.9321 17.1984 19.9334 17.3886 20.1136L20.8439 23.387C21.2448 23.7668 21.8777 23.7498 22.2576 23.3488C22.6374 22.9479 22.6203 22.3149 22.2194 21.9351L18.6382 18.5425C18.4647 18.3781 18.4334 18.1146 18.5501 17.906C19.0786 16.9612 19.4086 15.8902 19.4836 14.7497C19.5017 14.4742 19.7239 14.25 20 14.25H22.5C23.0523 14.25 23.5 13.8023 23.5 13.25C23.5 12.6977 23.0523 12.25 22.5 12.25H20C19.7239 12.25 19.5 12.0261 19.5 11.75V8.17832C19.5 8.04103 19.5565 7.90977 19.6561 7.81535L22.2194 5.38702C22.6203 5.0072 22.6374 4.37427 22.2576 3.97333C21.8777 3.57239 21.2448 3.5553 20.8439 3.93512L18.0172 6.61298C17.9244 6.70096 17.8013 6.75 17.6734 6.75H6.38986C6.26193 6.75 6.13887 6.70096 6.04599 6.61298L3.21936 3.93512Z"/>
</svg>