<svg width="25" height="25" viewBox="0 0 25 25" fill="none" xmlns="http://www.w3.org/2000/svg">
<g clip-path="url(#clip0_54_124)">
<rect width="25" height="25" fill="black"/>
<path d="M22.6432 24.987C22.8451 24.9284 23.0534 24.8893 23.2487 24.8112C24.2448 24.388 24.7852 23.6328 24.8828 22.5521C24.8893 22.4479 24.8893 22.3437 24.8893 22.233C24.8893 14.9414 24.8893 7.64323 24.8893 0.351562C24.8893 0.253905 24.8893 0.15625 24.8893 0.0455727C23.7174 0.0455727 22.5586 0.0455727 21.3672 0.0455727C21.3672 0.136719 21.3672 0.234375 21.3672 0.325521C21.3672 2.48047 21.3672 4.62891 21.3737 6.78385C21.3737 6.97916 21.3151 7.11588 21.1784 7.2526C20.7357 7.68229 20.2995 8.11852 19.8698 8.56117C19.7916 8.64586 19.7396 8.78258 19.733 8.8932C19.7135 9.2643 19.733 9.64195 19.7201 10.013C19.7135 10.1823 19.7721 10.2604 19.9284 10.332C20.8334 10.7552 21.3412 11.4713 21.3541 12.474C21.3672 13.4701 20.892 14.2188 19.987 14.6549C18.8021 15.2279 17.3763 14.6875 16.8295 13.4896C16.2891 12.2982 16.8099 10.8854 18.0078 10.358C18.2162 10.267 18.2682 10.1563 18.2682 9.94789C18.2552 9.39453 18.2552 8.84117 18.2682 8.2943C18.2682 8.18359 18.3268 8.04687 18.4115 7.96227C18.8541 7.5 19.3164 7.05078 19.7656 6.59505C19.8373 6.52344 19.9023 6.40625 19.9023 6.30859C19.9088 4.26432 19.9088 2.21354 19.9088 0.16927C19.9088 0.136718 19.9023 0.104166 19.8959 0.0585934C18.75 0.0585934 17.6107 0.0585934 16.4323 0.0585934C16.4323 0.442708 16.4584 0.833336 16.4258 1.21745C16.3867 1.69922 16.4779 2.00521 16.9791 2.27213C17.9427 2.79297 18.3073 3.99088 17.9427 5.02604C17.5846 6.05469 16.5495 6.72526 15.4948 6.61459C14.3945 6.50391 13.5091 5.67057 13.3529 4.60286C13.1966 3.53516 13.7695 2.49349 14.7656 2.07682C14.9349 2.00521 14.974 1.92057 14.974 1.7513C14.9674 1.19141 14.9674 0.63151 14.9674 0.0585934C13.8086 0.0585934 12.6627 0.0585934 11.4974 0.0585934C11.4974 0.156249 11.4974 0.240885 11.4974 0.325521C11.4974 2.29166 11.4974 4.25781 11.4909 6.22396C11.4909 6.39323 11.5365 6.51041 11.6602 6.6276C12.1159 7.07031 12.5651 7.51953 13.0013 7.97523C13.0795 8.05992 13.138 8.19664 13.138 8.30727C13.151 8.95836 13.1445 9.60289 13.1445 10.2539C13.9779 10.5795 14.5248 11.1459 14.7266 12.0117C15.026 13.2877 14.1666 14.5963 12.8776 14.8502C11.556 15.1107 10.267 14.2057 10.0716 12.8906C9.90883 11.7838 10.4623 10.7813 11.5039 10.332C11.6471 10.267 11.6927 10.2018 11.6862 10.0455C11.6732 9.60938 11.7969 9.12109 11.6406 8.74352C11.4844 8.36586 11.0612 8.09898 10.7617 7.78646C10.5273 7.53906 10.1953 7.33723 10.0716 7.04427C9.94789 6.7513 10.0326 6.3737 10.0326 6.03516C10.0326 4.14062 10.0326 2.2526 10.0326 0.358073C10.0326 0.260416 10.0326 0.162759 10.0326 0.0520825C8.8607 0.0520825 7.70182 0.0520825 6.52995 0.0520825C6.52995 7.26563 6.52995 14.4727 6.52995 21.6992C10.9375 21.6992 15.3385 21.6992 19.7787 21.6992C19.7787 21.901 19.7787 22.0898 19.7787 22.2721C19.7787 23.7045 20.5469 24.6549 21.9596 24.9609C21.9857 24.9674 22.0052 24.9805 22.0248 24.9935C21.0807 24.9935 20.1367 24.9935 19.1992 24.9935C19.1732 24.9414 19.1471 24.8763 19.1146 24.8307C18.8021 24.4076 18.5677 23.9453 18.457 23.431C18.4115 23.2162 18.3268 23.1641 18.1185 23.1641C12.1875 23.1705 6.26302 23.1705 0.332031 23.1705C0.247396 23.1705 0.16276 23.1771 0.052083 23.1836C0.32552 23.9713 0.807289 24.4987 1.54297 24.8047C1.73828 24.8828 1.9401 24.9349 2.14193 25C1.42578 25 0.709635 25 0 25C0 16.6666 0 8.33336 0 0C8.33336 0 16.6602 0 25 0C25 8.33336 25 16.6666 25 25C24.1992 24.987 23.4245 24.987 22.6432 24.987ZM12.4088 13.4245C12.9037 13.418 13.3203 12.9948 13.3138 12.5C13.3073 11.9987 12.8906 11.5885 12.3893 11.5951C11.888 11.6016 11.4779 12.0182 11.4844 12.5195C11.4909 13.0143 11.9141 13.431 12.4088 13.4245ZM19.8893 12.5065C19.8893 12.0052 19.4727 11.5885 18.9713 11.5951C18.4766 11.5951 18.0599 12.0182 18.0599 12.513C18.0599 13.0078 18.483 13.4245 18.9779 13.4245C19.4791 13.4245 19.8959 13.0013 19.8893 12.5065ZM14.7852 4.23177C14.7852 4.73959 15.1823 5.14974 15.6901 5.14974C16.1914 5.14974 16.6016 4.73959 16.6016 4.23828C16.6016 3.73047 16.1979 3.32682 15.6966 3.32031C15.1888 3.32031 14.7852 3.72396 14.7852 4.23177Z" fill="white"/>
</g>
<defs>
<clipPath id="clip0_54_124">
<rect width="25" height="25" fill="white"/>
</clipPath>
</defs>
</svg>
