<svg xmlns="http://www.w3.org/2000/svg" width="24" height="24" viewBox="0 0 24 24" fill="none">
    <path fill-rule="evenodd" clip-rule="evenodd" d="M8.05857 8.81248H8.55857C8.69664 8.81248 8.80857 8.70055 8.80857 8.56248V8.06248V1.75C8.80857 1.61193 8.9205 1.5 9.05857 1.5H13.75C13.8881 1.5 14 1.61193 14 1.75V8.03028C14 8.25691 14.2774 8.3666 14.4324 8.20127L15.4324 7.1346C15.4758 7.08826 15.5 7.02713 15.5 6.96361V1.5V0.25C15.5 0.111929 15.3881 0 15.25 0H14H8.80857H8.16688C8.09778 0 8.03176 0.0286021 7.98449 0.0790148L7.30857 0.8L1.20312 7.31248L0.567616 7.99035C0.524175 8.03669 0.5 8.09782 0.5 8.16134V8.81248V17.5V18.75C0.5 18.8881 0.611929 19 0.75 19H2H8.6875C8.82557 19 8.9375 18.8881 8.9375 18.75V17.75C8.9375 17.6119 8.82557 17.5 8.6875 17.5H2.25C2.11193 17.5 2 17.3881 2 17.25V9.06248C2 8.9244 2.11193 8.81248 2.25 8.81248H8.05857ZM7.30857 3.62537C7.30857 3.39873 7.03119 3.28904 6.87619 3.45438L3.6539 6.89149C3.50421 7.05116 3.61742 7.31248 3.83628 7.31248H7.05857C7.19664 7.31248 7.30857 7.20055 7.30857 7.06248V3.62537Z" fill="currentcolor"/>
    <path d="M9.25 13.8125H15.8086C16.3609 13.8125 16.8086 13.3648 16.8086 12.8125V5.75H22.75V23.25H9.25V13.8125ZM10.2312 12.3125L15.3086 6.89659V12.3125H10.2312Z" stroke="currentcolor" stroke-width="1.5"/>
</svg>