<svg width="32" height="32" viewBox="0 0 32 32" fill="none" xmlns="http://www.w3.org/2000/svg">
 <circle cx="16" cy="16" r="15.5" stroke="currentcolor"/>
 <path d="M18.0307 11.2269C18.1713 11.3676 18.2502 11.5583 18.2502 11.7572C18.2502 11.956 18.1713 12.1468 18.0307 12.2874L14.3182 15.9999L18.0307 19.7124C18.1673 19.8539 18.2429 20.0433 18.2412 20.24C18.2394 20.4366 18.1606 20.6247 18.0215 20.7638C17.8825 20.9028 17.6944 20.9817 17.4977 20.9834C17.3011 20.9851 17.1116 20.9095 16.9702 20.7729L12.7274 16.5302C12.5868 16.3895 12.5078 16.1988 12.5078 15.9999C12.5078 15.801 12.5868 15.6103 12.7274 15.4697L16.9702 11.2269C17.1108 11.0863 17.3015 11.0073 17.5004 11.0073C17.6993 11.0073 17.89 11.0863 18.0307 11.2269Z" fill="currentcolor"/>
</svg>
