<svg width="18" height="12" viewBox="0 0 18 12" fill="none" xmlns="http://www.w3.org/2000/svg">
<path fill-rule="evenodd" clip-rule="evenodd" d="M0.25 5.99994C0.25 5.83418 0.315848 5.67521 0.433058 5.558C0.550268 5.44079 0.709239 5.37494 0.875 5.37494L15.6162 5.37494L11.6825 1.44244C11.5651 1.32508 11.4992 1.16591 11.4992 0.999942C11.4992 0.833973 11.5651 0.674801 11.6825 0.557443C11.7999 0.440084 11.959 0.374154 12.125 0.374154C12.291 0.374154 12.4501 0.440084 12.5675 0.557443L17.5675 5.55744C17.6257 5.6155 17.6719 5.68447 17.7034 5.7604C17.7349 5.83633 17.7511 5.91773 17.7511 5.99994C17.7511 6.08215 17.7349 6.16355 17.7034 6.23948C17.6719 6.31542 17.6257 6.38439 17.5675 6.44244L12.5675 11.4424C12.4501 11.5598 12.291 11.6257 12.125 11.6257C11.959 11.6257 11.7999 11.5598 11.6825 11.4424C11.5651 11.3251 11.4992 11.1659 11.4992 10.9999C11.4992 10.834 11.5651 10.6748 11.6825 10.5574L15.6162 6.62494L0.875 6.62494C0.709239 6.62494 0.550268 6.55909 0.433058 6.44188C0.315848 6.32467 0.25 6.1657 0.25 5.99994Z" fill="#2F6DF2"/>
</svg>
