<svg width="25" height="25" viewBox="0 0 25 25" fill="none" xmlns="http://www.w3.org/2000/svg">
<path fill-rule="evenodd" clip-rule="evenodd" d="M11.8663 0.221527C8.84768 0.311478 5.93564 1.57142 3.77363 3.72288C1.87505 5.61224 0.708699 7.98691 0.322291 10.7497C0.283516 11.027 0.260347 11.6226 0.262884 12.2792C0.267528 13.5049 0.353742 14.1862 0.643069 15.2848C1.05509 16.8493 1.78602 18.3175 2.80833 19.6342C3.19814 20.1363 4.24458 21.1932 4.73362 21.5789C8.02134 24.1714 12.2942 24.9043 16.2225 23.5496C16.942 23.3014 18.1754 22.6963 18.8074 22.2812C21.817 20.3049 23.7516 17.2081 24.1912 13.6633C24.2759 12.98 24.2875 11.6263 24.2144 10.951C23.7915 7.04214 21.5175 3.62634 18.0544 1.69798C16.5685 0.870542 14.6894 0.324813 13.0885 0.255748C12.7717 0.242079 12.4479 0.226402 12.3689 0.220858C12.2899 0.215361 12.0637 0.215648 11.8663 0.221527ZM18.2633 5.94012C18.3814 6.27832 18.5083 6.55357 18.5784 6.62354C18.6546 6.69959 18.8958 6.8034 19.2662 6.91949C19.7849 7.08209 19.8366 7.10862 19.8366 7.21205C19.8366 7.31471 19.7837 7.34306 19.2912 7.50413C18.9912 7.60225 18.6896 7.72351 18.621 7.77365C18.5262 7.8429 18.4503 8.00421 18.3048 8.44551C18.1995 8.76488 18.0873 9.05175 18.0555 9.08296C17.95 9.18663 17.8582 9.03832 17.685 8.48413C17.57 8.11639 17.479 7.91235 17.394 7.83186C17.3186 7.76046 17.0425 7.64011 16.6866 7.52353C16.1985 7.36371 16.1028 7.31667 16.1028 7.23676C16.1028 7.15737 16.2002 7.1079 16.6772 6.94497C17.031 6.82414 17.2986 6.70269 17.3737 6.62875C17.4558 6.54812 17.5479 6.33811 17.6547 5.98853C17.9128 5.1436 17.9831 5.13801 18.2633 5.94012ZM7.85921 6.92728C9.1449 7.04902 10.4004 7.50929 11.651 8.31737C12.0027 8.54459 12.5164 8.9335 13.8289 9.96617C15.9799 11.6585 17.0178 12.3419 17.9359 12.6702C18.2881 12.7962 19.1042 12.8393 19.6113 12.7588C20.1487 12.6734 20.9567 12.3905 22.0413 11.9078C22.5664 11.6741 23.0035 11.5014 23.0125 11.524C23.0475 11.6116 22.8639 12.5156 22.7279 12.9244C22.3413 14.0874 21.6472 15.1199 20.7884 15.8097C20.2926 16.2079 19.9833 16.3952 19.4203 16.6382C18.6655 16.964 18.1836 17.066 17.2672 17.0941C16.7622 17.1096 16.3226 17.0973 16.0705 17.0607C14.5479 16.8396 13.0579 16.2078 11.5226 15.1323C10.7289 14.5763 10.0528 14.0024 9.0898 13.067C7.75499 11.7707 7.07998 11.2816 6.24153 11.003C5.89883 10.8892 5.78561 10.8757 5.16445 10.8742C4.55559 10.8727 4.40566 10.8891 3.94376 11.0075C3.27751 11.1784 2.66721 11.4045 1.91694 11.7586L1.32622 12.0374L1.35959 11.7879C1.40861 11.4212 1.65313 10.6837 1.86706 10.2573C2.90522 8.18827 4.81304 6.97608 7.175 6.88484C7.26715 6.8813 7.57505 6.90038 7.85921 6.92728ZM5.96221 17.8393C6.35134 18.2633 6.04909 18.9231 5.46603 18.9226C4.83166 18.9219 4.59125 18.0616 5.13089 17.7231C5.24942 17.6487 5.34286 17.6313 5.54334 17.6461C5.76857 17.6628 5.82343 17.6881 5.96221 17.8393Z" fill="black"/>
</svg>
