<svg xmlns="http://www.w3.org/2000/svg" width="24" height="24" viewBox="0 0 24 24" fill="currentcolor">
  <path fill-rule="evenodd" clip-rule="evenodd" d="M12 0C5.37258 0 0 5.37259 0 12C0 18.6274 5.37258 24 12 24C18.6274 24 24 18.6274 24 12C24 5.37259 18.6274 0 12 0ZM4.68777 7.52798L4.99776 6.00259L5.75536 7.36234L7.28074 7.67233L5.921 8.42996L5.611 9.95532L4.8534 8.59558L3.32803 8.28558L4.68777 7.52798ZM22.638 10.6309C21.9254 10.2093 20.9063 9.60629 18.7639 9.93866C17.4699 10.1394 16.1629 11.499 14.6899 13.0313C12.7882 15.0095 10.6099 17.2755 7.82565 17.7074C3.26182 18.4155 1.61274 14.6235 0.976723 12.6982C1.73772 13.2548 3.18304 13.8739 5.1594 13.5673C6.58457 13.3462 8.25391 11.6839 9.98756 9.95764C11.8601 8.09305 13.8077 6.15375 15.6036 5.87512C19.5538 5.2623 21.4088 8.30188 22.5481 10.1688C22.6914 10.4035 22.8233 10.6197 22.9466 10.8077C22.849 10.7557 22.7471 10.6954 22.638 10.6309ZM17.8607 17.1625C17.9454 17.7083 18.4565 18.0821 19.0022 17.9974C19.548 17.9127 19.9218 17.4017 19.8371 16.8559C19.7524 16.3102 19.2414 15.9364 18.6956 16.0211C18.1499 16.1057 17.7761 16.6168 17.8607 17.1625Z"/>
</svg>