<svg width="18" height="14" viewBox="0 0 18 14" fill="none" xmlns="http://www.w3.org/2000/svg">
<path d="M17.125 1.756C16.5274 2.03162 15.8855 2.21785 15.2106 2.30202C15.9069 1.86833 16.4279 1.18575 16.6763 0.381636C16.022 0.786116 15.306 1.07083 14.5593 1.22339C14.0572 0.665348 13.3921 0.295469 12.6673 0.171179C11.9425 0.0468886 11.1986 0.17514 10.551 0.536022C9.90345 0.896903 9.38845 1.47022 9.08599 2.16697C8.78353 2.86372 8.71054 3.64491 8.87834 4.38927C7.55269 4.31999 6.25586 3.96135 5.07199 3.33664C3.88813 2.71192 2.84369 1.83508 2.00647 0.763032C1.72021 1.27702 1.5556 1.87295 1.5556 2.50762C1.55528 3.07896 1.69046 3.64156 1.94913 4.14548C2.20781 4.64941 2.58199 5.07909 3.03847 5.39639C2.50907 5.37886 1.99135 5.22997 1.52841 4.96211V5.0068C1.52835 5.80814 1.79466 6.58481 2.28214 7.20504C2.76962 7.82527 3.44824 8.25085 4.20286 8.40957C3.71176 8.54791 3.19687 8.56828 2.6971 8.46916C2.91001 9.15866 3.32473 9.7616 3.88322 10.1936C4.44171 10.6256 5.116 10.8649 5.81169 10.8782C4.63072 11.8432 3.17222 12.3666 1.67082 12.3643C1.40487 12.3644 1.13914 12.3482 0.875 12.3159C2.399 13.3358 4.17305 13.8771 5.98488 13.875C12.1182 13.875 15.4711 8.5876 15.4711 4.00191C15.4711 3.85293 15.4675 3.70246 15.4611 3.55348C16.1133 3.06256 16.6762 2.45465 17.1236 1.75824L17.125 1.756Z" fill="#2F6DF2"/>
</svg>
