<svg xmlns="http://www.w3.org/2000/svg" width="24" height="24" viewBox="0 0 24 24" fill="currentcolor">
  <path fill-rule="evenodd" clip-rule="evenodd" d="M2.80057 6.22279C2.45016 6.5732 2.45018 7.14129 2.80057 7.49168L8.51056 13.2017C8.86095 13.5521 9.42904 13.5521 9.77945 13.2017L19.2961 3.68502C19.6465 3.33461 19.6465 2.76652 19.2961 2.41613L17.3928 0.512798C17.0424 0.16241 16.4743 0.162391 16.1239 0.512798L9.145 7.49168L5.97279 4.31946C5.6224 3.96907 5.05431 3.96905 4.7039 4.31946L2.80057 6.22279ZM0.262798 13.8361C-0.0876092 14.1865 -0.0875898 14.7546 0.262798 15.105L8.51056 23.3528C8.86095 23.7031 9.42904 23.7032 9.77945 23.3528L23.7372 9.395C24.0876 9.0446 24.0876 8.47651 23.7372 8.12612L21.8339 6.22279C21.4835 5.8724 20.9154 5.87238 20.565 6.22279L9.145 17.6428L3.43502 11.9328C3.08463 11.5824 2.51654 11.5824 2.16613 11.9328L0.262798 13.8361Z"/>
</svg>